# xmcd
#
# Track frame offsets:
#	182
#	12930
#	22957
#	37570
#	49345
#	59482
#	70210
#	84102
#	95975
#	109632
#	121422
#	134492
#	151010
#	162192
#	172960
#	184240
#	196020
#	206000
#
# Disc length: 2920
#
# Revision: 4
# Processed by: cddbd v1.5.1PL0 Copyright (c) Steve Scherf et al.
# Submitted via: VisiTrax 2.9.5.181 - For more info visit www.synapsa.com
# Normalized: r3:DSETVAR1
#
DISCID=e50b6612
DTITLE=Various Artist - The Great Sound of Country, Vol 3
DYEAR=1994
DGENRE=Country
TTITLE0=Charley Pride - Help Me Make It Through The Night
TTITLE1=Faron Young - Hello Walls
TTITLE2=B J Thomas - Hooked On A Feeling
TTITLE3=Patsy Cline - I've Love And Lost Again
TTITLE4=Brenda Lee - I'm Sorry
TTITLE5=Roger Miller - When Two Worlds Collide
TTITLE6=The Kendalls - Crying Time
TTITLE7=Roy Drusky - Take These Chains From My Heart
TTITLE8=Hank Locklin - I Could Call You Darling
TTITLE9=Tommy Overstreet - Welcome To My World
TTITLE10=Ray Stevens - Oh! Lonsome Me
TTITLE11=Diana Trask - Behind Closed Doors
TTITLE12=Buck Owens - Down On The Corner Of Love
TTITLE13=Webb Pierce - I Saw Your Face In The Moon
TTITLE14=George Jones - One Is A Lonley Number
TTITLE15=Faron Young - I Heard The Jukebox Playing
TTITLE16=Johnny Cash - There You Go
TTITLE17=George Jones - Seasons Of My Heart
EXTD=
EXTT0=
EXTT1=
EXTT2=
EXTT3=
EXTT4=
EXTT5=
EXTT6=
EXTT7=
EXTT8=
EXTT9=
EXTT10=
EXTT11=
EXTT12=
EXTT13=
EXTT14=
EXTT15=
EXTT16=
EXTT17=
PLAYORDER=
